{"title":"Ender's Game 2013.Part.Cropped.Cam.XviD.Feel-Free","uid":9262519,"size":1002583367,"categoryP":"video","categoryS":"movies","magnet":"?xt=urn:btih:d2687efefba267e17f265e7091c2b3c4a8799787&amp;dn=Ender%27s+Game+2013.Part.Cropped.Cam.XviD.Feel-Free&amp;tr=udp%3A%2F%2Ftracker.openbittorrent.com%3A80&amp;tr=udp%3A%2F%2Fopen.demonii.com%3A1337&amp;tr=udp%3A%2F%2Ftracker.coppersurfer.tk%3A6969&amp;tr=udp%3A%2F%2Fexodus.desync.com%3A6969","seeders":2,"leechers":0,"uploader":"50XTPB","files":8,"time":1385646306,"description":"[center]\n\n[b]Ender's Game 2013 Part Cropped Cam XviD Feel-Free[/b]\n\n[img]http://www.ultraimg.com/images/Lho8O.jpg[/img]\n\n[code]\nGenre:Action | Adventure \nLanguage:English\nIMDb:http://www.imdb.com/title/tt1731141/\nSource:720p.New.Source.HS.x264.AC3-SmY Thanks\nSample:Never\nEncoder:Tony\n\n\nFormat                                   : AVI\nFormat/Info                              : Audio Video Interleave\nFile size                                : 955 MiB\nDuration                                 : 1h 45mn\nOverall bit rate                         : 1 271 Kbps\nWriting application                      : VirtualDubMod 1.5.10.2 (build 2540/release)\nWriting library                          : VirtualDubMod build 2540/release\n\nVideo\nID                                       : 0\nFormat                                   : MPEG-4 Visual\nFormat profile                           : Advanced Simple@L5\nFormat settings, BVOP                    : 1\nFormat settings, QPel                    : No\nFormat settings, GMC                     : No warppoints\nFormat settings, Matrix                  : Default (H.263)\nCodec ID                                 : XVID\nCodec ID/Hint                            : XviD\nDuration                                 : 1h 45mn\nBit rate                                 : 1 099 Kbps\nWidth                                    : 640 pixels\nHeight                                   : 256 pixels\nDisplay aspect ratio                     : 2.500\nFrame rate                               : 29.970 fps\nColor space                              : YUV\nChroma subsampling                       : 4:2:0\nBit depth                                : 8 bits\nScan type                                : Progressive\nCompression mode                         : Lossy\nBits/(Pixel*Frame)                       : 0.224\nStream size                              : 826 MiB (86%)\nWriting library                          : XviD 1.2.1 (UTC 2008-12-04)\n\nAudio\nID                                       : 1\nFormat                                   : AC-3\nFormat/Info                              : Audio Coding 3\nMode extension                           : CM (complete main)\nCodec ID                                 : 2000\nDuration                                 : 1h 45mn\nBit rate mode                            : Constant\nBit rate                                 : 160 Kbps\nChannel(s)                               : 2 channels\nChannel positions                        : Front: L R\nSampling rate                            : 48.0 KHz\nBit depth                                : 16 bits\nCompression mode                         : Lossy\nStream size                              : 120 MiB (13%)\nAlignment                                : Aligned on interleaves\nInterleave, duration                     : 33 ms (1.00 video frame)\nInterleave, preload duration             : 512 ms[/code]\n\n\n\n\n\n[b]SCreenshots[/b]\n[img]http://www.ultraimg.com/images/GoPVz.png[/img]\n[img]http://www.ultraimg.com/images/HXrph.png[/img]\n[img]http://www.ultraimg.com/images/v4XGc.png[/img]\n[img]http://www.ultraimg.com/images/0PloC.png[/img]\n\nThanks to VYTO and P2PDL.\n\n[/center]\n","torrent":{"xt":"urn:btih:d2687efefba267e17f265e7091c2b3c4a8799787","amp;dn":"Ender%27s+Game+2013.Part.Cropped.Cam.XviD.Feel-Free","amp;tr":["udp%3A%2F%2Ftracker.openbittorrent.com%3A80","udp%3A%2F%2Fopen.demonii.com%3A1337","udp%3A%2F%2Ftracker.coppersurfer.tk%3A6969","udp%3A%2F%2Fexodus.desync.com%3A6969"],"infoHash":"d2687efefba267e17f265e7091c2b3c4a8799787","infoHashBuffer":{"type":"Buffer","data":[210,104,126,254,251,162,103,225,127,38,94,112,145,194,179,196,168,121,151,135]},"announce":[],"urlList":[]}}